<svg class="icon" viewBox="0 0 1036 1024" version="1.1" xmlns="http://www.w3.org/2000/svg" width="100" height="100"><path d="M759.466667 891.733333H98.133333c-55.466667 0-98.133333-42.666667-98.133333-98.133333V392.533333c0-55.466667 42.666667-98.133333 98.133333-98.133333h827.733334c55.466667 0 98.133333 42.666667 98.133333 98.133333v234.666667c0 12.8-8.533333 21.333333-21.333333 21.333333s-21.333333-8.533333-21.333334-21.333333V392.533333c0-29.866667-25.6-55.466667-55.466666-55.466666H98.133333c-29.866667 0-55.466667 25.6-55.466666 55.466666v396.8c0 29.866667 25.6 55.466667 55.466666 55.466667h661.333334c12.8 0 21.333333 8.533333 21.333333 21.333333s-8.533333 25.6-21.333333 25.6z" fill="#7162AD" p-id="10340"></path><path d="M917.333333 891.733333H823.466667c-12.8 0-21.333333-8.533333-21.333334-21.333333s8.533333-21.333333 21.333334-21.333333h93.866666c34.133333 0 64-29.866667 64-64v-85.333334c0-12.8 8.533333-21.333333 21.333334-21.333333s21.333333 8.533333 21.333333 21.333333v85.333334c0 55.466667-46.933333 106.666667-106.666667 106.666666z" fill="#A495FC" p-id="10341"></path><path d="M21.333333 426.666667c-12.8 0-21.333333-8.533333-21.333333-21.333334V264.533333c0-55.466667 42.666667-98.133333 98.133333-98.133333h486.4c55.466667 0 98.133333 42.666667 98.133334 98.133333v21.333334c0 12.8-8.533333 21.333333-21.333334 21.333333s-21.333333-8.533333-21.333333-21.333333v-21.333334c0-29.866667-25.6-55.466667-55.466667-55.466666H98.133333c-29.866667 0-55.466667 25.6-55.466666 55.466666v140.8c0 12.8-8.533333 21.333333-21.333334 21.333334z" fill="#7162AD" p-id="10342"></path></svg>